<mxfile host="app.diagrams.net" modified="2024-06-06T11:44:57.053Z" agent="Mozilla/5.0 (Macintosh; Intel Mac OS X 10_15_7) AppleWebKit/537.36 (KHTML, like Gecko) Chrome/122.0.0.0 YaBrowser/24.4.0.0 Safari/537.36" version="23.1.4" etag="RQqCwY6F5Z9ZoPg0u1Oc" type="github">
  <diagram name="Страница — 1" id="CuXTTJYGQus8yoZZSQjK">
    <mxGraphModel>
      <root>
        <mxCell id="0" />
        <mxCell id="1" parent="0" />
      </root>
    </mxGraphModel>
  </diagram>
</mxfile>
